<?xml version="1.0" encoding="utf-8"?>
<!-- Generator: Adobe Illustrator 19.1.0, SVG Export Plug-In . SVG Version: 6.00 Build 0)  -->
<svg version="1.1" id="Vectorportal.com" xmlns="http://www.w3.org/2000/svg" xmlns:xlink="http://www.w3.org/1999/xlink" x="0px"
	 y="0px" viewBox="0 0 600 600" style="enable-background:new 0 0 600 600;" xml:space="preserve">
<style type="text/css">
	.st0{fill:#006837;}
	.st1{fill:#FF0000;}
	.st2{fill:#FFFFFF;}
</style>
<g>
	<path d="M300.7,30.6C153.4,30.6,33.9,150,33.9,297.4c0,147.4,119.5,266.8,266.8,266.8c147.4,0,266.8-119.5,266.8-266.8
		C567.6,150,448.1,30.6,300.7,30.6 M300.7,501.6c-112.8,0-204.2-91.4-204.2-204.2c0-112.8,91.4-204.2,204.2-204.2
		c112.8,0,204.2,91.4,204.2,204.2C505,410.2,413.5,501.6,300.7,501.6"/>
	<path class="double16" d="M142,384.2l-15.6,8.5c10.4,19,23.8,36.1,39.6,50.7l12.2-13C163.7,417.2,151.5,401.6,142,384.2"/>
	<path class="double19" d="M224.5,461.5l-7.4,16.2c17.6,8.2,36.5,13.8,56.4,16.5l2.6-17.6C258,474.2,240.6,469,224.5,461.5"/>
	<path class="double17" d="M333.5,475.4l3.3,17.5c18.9-3.5,36.8-9.6,53.4-18l-8-15.9C367.1,466.6,350.8,472.2,333.5,475.4"/>
	<path class="double11" d="M119.8,297.4c0-7.1,0.4-14.2,1.2-21.1l-17.7-2c-0.9,7.6-1.3,15.3-1.3,23.1c0,12.8,1.2,25.3,3.5,37.4l17.5-3.1
		C120.9,320.6,119.8,309.1,119.8,297.4"/>
	<path class="double15" d="M430.2,423.8l12.9,12.3c14.5-14.9,26.6-32,35.9-50.8l-16-7.8C454.5,394.7,443.4,410.2,430.2,423.8"/>
	<path class="double5" d="M268.7,119.3l-3.2-17.5c-19.6,3.5-38.2,9.9-55.3,18.7l8,15.9C233.8,128.3,250.8,122.5,268.7,119.3"/>
	<path class="double1" d="M378,133.7l7.4-16.2c-16.8-7.9-35-13.6-54-16.5l-2.8,17.6C346,121.3,362.6,126.5,378,133.7"/>
	<path class="double9" d="M171.1,171.2l-12.8-12.4c-15.1,15.6-27.8,33.6-37.2,53.5l16.1,7.7C145.7,201.9,157.2,185.4,171.1,171.2"/>
	<path class="double6" d="M481.7,297.4c0,8.5-0.6,16.9-1.7,25.1l17.7,2.1c1.2-8.9,1.9-18,1.9-27.2c0-12.3-1.1-24.4-3.3-36.1l-17.5,3.4
		C480.7,275.3,481.7,286.2,481.7,297.4"/>
	<path class="double4" d="M459.1,209.8l15.4-8.9c-9.2-16.6-20.8-31.7-34.2-45l-12.5,12.7C440.1,180.7,450.6,194.5,459.1,209.8"/>
	

	<path class="triple16" d="M204.7,349.9l-14.7,8c6.7,12.3,15.4,23.3,25.7,32.6l11.5-12.2C218.1,370.3,210.5,360.6,204.7,349.9"/>
	<path class="triple17" d="M320.3,405.1l3.1,16.5c12.2-2.2,23.7-6.2,34.4-11.6l-7.5-15C341,399.8,330.9,403.2,320.3,405.1"/>
	<path class="triple19" d="M254.2,396.5l-7,15.3c11.5,5.4,23.9,9.1,37,10.8l2.5-16.6C275.2,404.5,264.3,401.3,254.2,396.5"/>
	<path class="triple6" d="M410.2,297.4c0,5.7-0.4,11.3-1.3,16.7l16.6,2c0.9-6.1,1.4-12.3,1.4-18.7c0-7.6-0.7-15-2-22.2l-16.5,3.2
		C409.7,284.5,410.2,290.9,410.2,297.4"/>
	<path class="triple15" d="M378.6,374.4l12.1,11.6c9.3-9.4,17.1-20.3,23.1-32.3l-15.1-7.3C393.5,356.7,386.7,366.2,378.6,374.4"/>
	<path class="triple5" d="M281.6,189.6l-3-16.5c-12.6,2.2-24.6,6.4-35.7,12.1l7.6,15C260.1,195.1,270.6,191.5,281.6,189.6"/>
	<path class="triple1" d="M348.1,198.6l7-15.2c-10.9-5.2-22.7-8.9-35-10.8l-2.6,16.6C328.2,190.8,338.5,194.1,348.1,198.6"/>
	<path class="triple9" d="M222.4,220.9l-12.1-11.6c-9.7,10-17.8,21.6-23.9,34.4l15.1,7.2C206.9,239.7,213.9,229.6,222.4,220.9"/>
	<path class="triple4" d="M397.2,245.6l14.5-8.4c-6-11-13.5-21-22.4-29.7l-11.8,11.9C385.4,227.1,392,235.9,397.2,245.6"/>
	<path class="triple11" d="M191.3,297.4c0-4.4,0.3-8.8,0.8-13.1l-16.7-1.9c-0.6,4.9-0.9,9.9-0.9,15c0,8.5,0.9,16.8,2.5,24.9l16.5-2.9
		C192,312.3,191.3,304.9,191.3,297.4"/>


	<path class="double20" d="M300.7,116.5c9.5,0,18.8,0.7,27.9,2.1l2.8-17.6c-10-1.5-20.3-2.4-30.7-2.4c-12,0-23.8,1.1-35.3,3.1l3.2,17.5
		C279.1,117.4,289.8,116.5,300.7,116.5"/>
	<path class="double3" d="M300.7,478.3c-8.3,0-16.5-0.6-24.6-1.7l-2.6,17.6c8.9,1.2,17.9,1.9,27.2,1.9c12.3,0,24.4-1.1,36.1-3.3
		l-3.3-17.5C322.9,477.3,311.9,478.3,300.7,478.3"/>
	<path class="double7" d="M178.2,430.5l-12.2,13c15.1,13.9,32.3,25.5,51.2,34.3l7.4-16.2C207.5,453.6,191.9,443.1,178.2,430.5"/>
	<path class="double10" d="M479.9,322.5c-2.7,19.5-8.5,38-16.9,55l16,7.8c9.3-18.8,15.7-39.2,18.6-60.7L479.9,322.5z"/>
	<path class="double2" d="M382.3,458.9l8,15.9c19.7-10,37.6-23.1,52.8-38.8l-12.9-12.3C416.4,438,400.2,449.9,382.3,458.9"/>
	<path class="double13" d="M478.7,264.7l17.5-3.4c-4-21.6-11.4-42-21.7-60.5l-15.4,8.9C468.4,226.6,475.2,245.1,478.7,264.7"/>
	<path class="double12" d="M218.2,136.3l-8-15.9c-19.4,9.9-36.9,22.9-51.9,38.4l12.8,12.4C184.7,157.2,200.6,145.4,218.2,136.3"/>
	<path class="double14" d="M137.1,220l-16.1-7.7c-9.1,19.2-15.2,40-17.7,62l17.7,2C123.3,256.4,128.9,237.4,137.1,220"/>
	<path class="double8" d="M123.1,331.7l-17.5,3.1c3.9,20.6,11,40.1,20.8,58l15.6-8.5C133.1,368.1,126.7,350.4,123.1,331.7"/>
	<path class="double18" d="M427.8,168.5l12.5-12.7c-15.9-15.7-34.4-28.7-54.8-38.3l-7.4,16.2C396.5,142.5,413.3,154.3,427.8,168.5"/>


	<path class="triple7" d="M227.1,378.4l-11.5,12.2c9.4,8.5,20,15.7,31.6,21.1l7-15.3C244.3,391.8,235.1,385.7,227.1,378.4"/>
	<path class="triple2" d="M350.3,395l7.5,15c12.2-6.2,23.3-14.4,32.9-24.1l-12.1-11.6C370.4,382.7,360.8,389.7,350.3,395"/>
	<path class="triple3" d="M300.7,406.9c-4.8,0-9.5-0.3-14.1-0.9l-2.5,16.6c5.4,0.7,10.9,1.1,16.5,1.1c7.7,0,15.3-0.7,22.6-2l-3.1-16.5
		C313.9,406.3,307.4,406.9,300.7,406.9"/>
	<path class="triple13" d="M397.2,245.6c5.4,10.1,9.3,21.1,11.3,32.7l16.5-3.2c-2.4-13.5-6.9-26.3-13.3-37.9L397.2,245.6z"/>
	<path class="triple10" d="M398.7,346.3l15.1,7.3c5.8-11.6,9.9-24.3,11.8-37.6l-16.6-2C407.2,325.5,403.7,336.4,398.7,346.3"/>
	<path class="triple8" d="M193.5,319.4l-16.5,2.9c2.5,12.7,7,24.7,13,35.7l14.7-8C199.5,340.5,195.7,330.2,193.5,319.4"/>
	<path class="triple12" d="M250.5,200.1l-7.6-15c-12.1,6.3-23.1,14.4-32.5,24.1l12.1,11.6C230.6,212.6,240,205.5,250.5,200.1"/>
	<path class="triple18" d="M377.6,219.5l11.8-11.9c-10-9.8-21.5-18-34.3-24.1l-7,15.2C359.1,203.9,369,211,377.6,219.5"/>
	<path class="triple14" d="M201.6,250.8l-15.1-7.2c-5.7,12-9.5,25.1-11.1,38.8l16.7,1.9C193.5,272.4,196.8,261.2,201.6,250.8"/>

	<path class="doubleBull" d="M310.2,297.4c0,5.2-4.2,9.5-9.5,9.5c-5.2,0-9.5-4.2-9.5-9.5c0-5.2,4.2-9.5,9.5-9.5
		C306,288,310.2,292.2,310.2,297.4"/>


	<path class="triple20" d="M300.7,187.9c5.7,0,11.2,0.4,16.7,1.3l2.6-16.6c-6.3-1-12.7-1.5-19.3-1.5c-7.6,0-15,0.7-22.2,1.9l3,16.5
		C287.8,188.5,294.2,187.9,300.7,187.9"/>

	<path d="M311.1,309.9c1.4-1.2,2.7-2.7,3.6-4.3l83.9,40.7c5-10,8.5-20.8,10.3-32.2l-93-11c0.7-1.8,1-3.7,1-5.7c0-0.4,0-0.8-0.1-1.3
		l91.6-17.8c-2-11.6-5.9-22.6-11.3-32.7l-81,47c-0.8-2.6-2.2-4.9-4.1-6.7l65.4-66.4c-8.6-8.5-18.6-15.5-29.6-20.8L309,283.4
		c-1.9-1.1-4-1.8-6.3-2.1l14.7-92.1c-5.4-0.8-11-1.3-16.7-1.3c-6.5,0-12.9,0.6-19.1,1.7l16.9,91.7c-2.1,0.3-4.1,1-5.9,2l-42.1-83.2
		c-10.4,5.4-19.9,12.4-28,20.8l67.1,64.8c-1.6,1.5-2.8,3.3-3.7,5.3l-84.2-40.2c-4.9,10.4-8.2,21.6-9.6,33.5l92.7,10.4
		c-0.1,0.9-0.2,1.8-0.2,2.7c0,2.1,0.4,4,1.1,5.9l-92.1,16.1c2.2,10.9,6,21.1,11.2,30.6l81.8-44.7c1.1,2,2.7,3.8,4.5,5.2l-63.9,68
		c8,7.3,17.2,13.4,27.1,18.1l38.7-84.9c2.2,1.2,4.7,1.9,7.4,2L286.7,406c4.6,0.6,9.3,0.9,14.1,0.9c6.7,0,13.2-0.6,19.5-1.7
		l-17.3-91.7c2-0.3,3.9-0.9,5.7-1.9l41.7,83.4c10.5-5.3,20.1-12.3,28.3-20.7L311.1,309.9z M302,308.8c-0.3,0-0.7,0.1-1,0.1
		c-0.1,0-0.2,0-0.3,0c-2.1,0-4.1-0.6-5.9-1.6c-0.2-0.1-0.4-0.2-0.6-0.4c-1.5-1-2.7-2.4-3.6-4c-0.1-0.2-0.2-0.3-0.3-0.5
		c-0.7-1.5-1.2-3.2-1.2-5c0-0.7,0.1-1.5,0.2-2.2c0.1-0.7,0.4-1.4,0.6-2.1c0.6-1.6,1.6-3,2.8-4.1c0.6-0.5,1.2-1,1.8-1.4
		c1.4-0.8,2.9-1.4,4.6-1.6c0.5-0.1,0.9-0.1,1.4-0.1c0.4,0,0.8,0,1.2,0.1c1.8,0.2,3.5,0.8,5,1.8c0.7,0.4,1.3,1,1.9,1.5
		c1.6,1.6,2.7,3.6,3.1,5.8c0.1,0.6,0.2,1.3,0.2,2c0,0.1,0,0.2,0,0.4c0,1.8-0.4,3.6-1.2,5.1c-0.2,0.3-0.4,0.7-0.6,1
		c-0.7,1.2-1.7,2.2-2.8,3c-0.4,0.3-0.8,0.6-1.2,0.8C305.1,308.1,303.6,308.6,302,308.8"/>

	<path class="fat18" d="M427.8,168.5c-14.4-14.2-31.2-26.1-49.8-34.8l-22.9,49.7c12.8,6.1,24.4,14.3,34.3,24.1L427.8,168.5z"/>
	<path class="fat13" d="M425,275.1l53.7-10.4c-3.6-19.6-10.3-38.1-19.7-55l-47.3,27.5C418.1,248.9,422.6,261.6,425,275.1"/>
	<path class="fat7" d="M178.2,430.5c13.7,12.6,29.3,23.1,46.4,31.1l22.7-49.8c-11.6-5.4-22.3-12.6-31.6-21.1L178.2,430.5z"/>
	<path class="fat8" d="M177,322.3l-53.9,9.4c3.6,18.7,10,36.3,18.9,52.5l48-26.2C183.9,347,179.5,335,177,322.3"/>
	<path class="fat10" d="M425.6,316.1c-2,13.3-6,26-11.8,37.6l49.2,23.9c8.4-17,14.2-35.5,16.9-55L425.6,316.1z"/>
	<path class="fat14" d="M186.5,243.6L137.1,220c-8.3,17.4-13.8,36.4-16.1,56.3l54.4,6.1C177,268.7,180.8,255.6,186.5,243.6"/>
	<path class="fat2" d="M357.8,410l24.5,48.9c17.9-9,34.1-21,47.9-35.2L390.7,386C381.2,395.7,370.1,403.8,357.8,410"/>
	<path class="fat3" d="M300.7,423.6c-5.6,0-11.1-0.4-16.5-1.1l-8,54.1c8,1.1,16.2,1.7,24.6,1.7c11.2,0,22.2-1,32.8-3l-10.2-53.7
		C316,422.9,308.5,423.6,300.7,423.6"/>
	<path class="fat12" d="M242.9,185.2l-24.7-48.8c-17.6,9-33.5,20.9-47.1,34.9l39.3,38C219.8,199.6,230.8,191.4,242.9,185.2"/>
	<path class="fat20" d="M300.7,171.1c6.6,0,13,0.5,19.3,1.5l8.6-54c-9.1-1.4-18.4-2.1-27.9-2.1c-10.9,0-21.7,1-32.1,2.8l9.9,53.8
		C285.8,171.8,293.2,171.1,300.7,171.1"/>


	<path class="st2" d="M300.7,425.9c-70.8,0-128.4-57.6-128.4-128.4c0-70.8,57.6-128.4,128.4-128.4c70.8,0,128.4,57.6,128.4,128.4
		C429.2,368.3,371.6,425.9,300.7,425.9 M300.7,172.1c-69.1,0-125.4,56.2-125.4,125.4c0,69.1,56.2,125.4,125.4,125.4
		c69.1,0,125.4-56.2,125.4-125.4C426.1,228.3,369.9,172.1,300.7,172.1"/>
	<path class="st2" d="M300.7,478.8c-48.4,0-94-18.9-128.2-53.1c-34.3-34.3-53.1-79.8-53.1-128.2c0-48.4,18.9-94,53.1-128.2
		c34.3-34.3,79.8-53.1,128.2-53.1c48.4,0,94,18.9,128.2,53.1c34.3,34.3,53.1,79.8,53.1,128.2c0,48.4-18.9,94-53.1,128.2
		C394.7,459.9,349.2,478.8,300.7,478.8 M300.7,119.1c-98.3,0-178.3,80-178.3,178.3c0,98.3,80,178.3,178.3,178.3
		c98.3,0,178.3-80,178.3-178.3C479,199.1,399.1,119.1,300.7,119.1"/>
	<path class="st2" d="M300.7,407.4c-60.6,0-110-49.3-110-110c0-60.6,49.3-110,110-110c60.6,0,110,49.3,110,110
		C410.7,358.1,361.4,407.4,300.7,407.4 M300.7,190.5c-58.9,0-106.9,48-106.9,106.9c0,58.9,48,106.9,106.9,106.9
		c58.9,0,106.9-48,106.9-106.9C407.6,238.5,359.7,190.5,300.7,190.5"/>


	<path class="singleBull" d="M300.7,316.4c-10.4,0-18.9-8.5-18.9-18.9c0-10.4,8.5-18.9,18.9-18.9s18.9,8.5,18.9,18.9
		C319.7,307.9,311.2,316.4,300.7,316.4 M300.7,281.6c-8.8,0-15.9,7.1-15.9,15.9c0,8.8,7.1,15.9,15.9,15.9s15.9-7.1,15.9-15.9
		C316.6,288.7,309.5,281.6,300.7,281.6"/>

		
	<path class="st2" d="M280.1,80.4v-3.6l3.3-2.9c5.6-5,8.3-7.9,8.4-10.9c0-2.1-1.2-3.7-4.2-3.7c-2.2,0-4.1,1.1-5.5,2.1l-1.7-4.2
		c1.9-1.5,4.9-2.6,8.3-2.6c5.8,0,8.9,3.4,8.9,8c0,4.3-3.1,7.7-6.8,11l-2.4,2v0.1h9.7v4.9H280.1z"/>
	<path class="st2" d="M320.7,67.6c0,7.8-3.2,13.3-9.7,13.3c-6.6,0-9.5-5.9-9.5-13.1c0-7.4,3.1-13.2,9.7-13.2
		C318,54.5,320.7,60.6,320.7,67.6 M307.5,67.7c0,5.8,1.4,8.6,3.7,8.6c2.3,0,3.6-2.9,3.6-8.7c0-5.7-1.2-8.6-3.6-8.6
		C309,59,307.5,61.7,307.5,67.7"/>
	<polygon class="st2" points="366.6,69.4 366.5,69.4 361.6,71.7 360.7,67.3 367.5,64.1 372.4,64.1 372.4,89.6 366.6,89.6 	"/>
	<polygon class="st2" points="423.4,103.7 423.3,103.7 418.5,106 417.5,101.5 424.3,98.4 429.2,98.4 429.2,123.9 423.4,123.9 	"/>
	<path class="st2" d="M441.8,110.8c-2.5-1.3-3.7-3.4-3.7-5.6c0-4.3,3.9-7.2,9-7.2c6,0,8.4,3.5,8.4,6.6c0,2.2-1.2,4.4-3.7,5.6v0.1
		c2.5,0.9,4.7,3.1,4.7,6.3c0,4.6-3.9,7.8-9.8,7.8c-6.5,0-9.5-3.6-9.5-7.1C437.2,114.2,439,112.1,441.8,110.8L441.8,110.8z
		 M450.4,117c0-2.2-1.7-3.6-4-4.2c-2,0.6-3.1,2-3.1,3.8c0,1.8,1.4,3.6,3.6,3.6C449,120.2,450.4,118.8,450.4,117 M443.7,105
		c0,1.7,1.5,2.8,3.6,3.5c1.4-0.4,2.6-1.6,2.6-3.2c0-1.6-0.9-3.2-3.1-3.2C444.7,102,443.7,103.4,443.7,105"/>
	<path class="st2" d="M485,168.9v-6.1h-11.3V159l9.6-15.5h7.3v15h3v4.5h-3v6.1H485z M485,158.4v-5.7c0-1.5,0.1-3.1,0.2-4.7h-0.1
		c-0.8,1.6-1.5,3.1-2.4,4.7l-3.4,5.6l0,0.1H485z"/>
	<polygon class="st2" points="507.1,209.3 507,209.3 502.2,211.6 501.2,207.1 508,204 512.9,204 512.9,229.5 507.1,229.5 	"/>
	<path class="st2" d="M522.3,223.7c1.1,0.6,3.5,1.6,5.9,1.6c3.1,0,4.7-1.5,4.7-3.4c0-2.6-2.5-3.7-5.1-3.7h-2.4v-4.3h2.4
		c2,0,4.5-0.8,4.5-2.9c0-1.5-1.2-2.7-3.8-2.7c-2.1,0-4.3,0.9-5.3,1.5l-1.2-4.3c1.5-1,4.6-1.9,7.9-1.9c5.4,0,8.4,2.9,8.4,6.4
		c0,2.7-1.5,4.9-4.7,5.9v0.1c3.1,0.5,5.5,2.9,5.5,6.2c0,4.5-4,7.8-10.4,7.8c-3.3,0-6.1-0.9-7.6-1.8L522.3,223.7z"/>
	<path class="st2" d="M537.5,280c-0.7,0-1.4,0-2.3,0.1c-5.3,0.4-7.7,3.1-8.3,6.1h0.1c1.3-1.3,3.1-2,5.4-2c4.3,0,7.9,3,7.9,8.3
		c0,5.1-3.9,9.2-9.4,9.2c-6.8,0-10.2-5.1-10.2-11.1c0-4.8,1.8-8.8,4.6-11.4c2.5-2.3,5.8-3.5,9.8-3.7c1.1-0.1,1.8-0.1,2.4,0V280z
		 M534.2,292.8c0-2.4-1.3-4.4-3.8-4.4c-1.6,0-2.9,1-3.5,2.2c-0.2,0.4-0.3,0.8-0.3,1.5c0.1,2.7,1.4,5.1,4.2,5.1
		C532.9,297.3,534.2,295.4,534.2,292.8"/>
	<polygon class="st2" points="512.9,353.4 512.8,353.4 507.9,355.7 507,351.2 513.7,348.1 518.7,348.1 518.7,373.6 512.9,373.6 	"/>
	<path class="st2" d="M545.9,360.7c0,7.8-3.2,13.3-9.7,13.3c-6.6,0-9.5-5.9-9.5-13.2c0-7.4,3.1-13.2,9.7-13.2
		C543.2,347.6,545.9,353.7,545.9,360.7 M532.7,360.8c0,5.8,1.4,8.6,3.7,8.6c2.3,0,3.6-2.9,3.6-8.7c0-5.7-1.2-8.6-3.6-8.6
		C534.2,352.1,532.7,354.9,532.7,360.8"/>
	<polygon class="st2" points="479.1,418.4 479.1,418.4 474.2,420.7 473.2,416.2 480,413.1 484.9,413.1 484.9,438.6 479.1,438.6 	"/>
	<path class="st2" d="M510.4,418h-9.9l-0.5,3.9c0.5-0.1,1-0.1,1.6-0.1c2.4,0,4.9,0.5,6.7,1.8c1.9,1.3,3.1,3.4,3.1,6.4
		c0,4.8-4.1,9-11,9c-3.1,0-5.7-0.7-7.1-1.5l1.1-4.5c1.1,0.5,3.4,1.3,5.7,1.3c2.5,0,5.1-1.2,5.1-3.9c0-2.6-2.1-4.2-7.2-4.2
		c-1.4,0-2.4,0.1-3.4,0.2l1.6-13.4h14.1V418z"/>
	<path class="st2" d="M430.3,490.4v-3.6l3.3-2.9c5.6-5,8.3-7.9,8.4-10.9c0-2.1-1.2-3.7-4.2-3.7c-2.2,0-4.1,1.1-5.5,2.1l-1.7-4.2
		c1.9-1.5,4.9-2.6,8.3-2.6c5.8,0,9,3.4,9,8c0,4.3-3.1,7.7-6.8,11l-2.4,2v0.1h9.7v4.9H430.3z"/>
	<polygon class="st2" points="366.6,504.9 366.5,504.9 361.7,507.2 360.7,502.7 367.5,499.6 372.4,499.6 372.4,525.1 366.6,525.1 	
		"/>
	<polygon class="st2" points="399.1,499.6 399.1,503.3 388.6,525.1 382.2,525.1 392.8,504.5 392.8,504.5 381.1,504.5 381.1,499.6 	
		"/>
	<path class="st2" d="M297.8,529c1.1,0.6,3.5,1.6,5.9,1.6c3.1,0,4.7-1.5,4.7-3.4c0-2.6-2.5-3.7-5.1-3.7h-2.4v-4.3h2.4
		c2,0,4.5-0.8,4.5-2.9c0-1.5-1.2-2.7-3.8-2.7c-2.1,0-4.3,0.9-5.3,1.5l-1.2-4.3c1.5-1,4.6-1.9,7.9-1.9c5.4,0,8.4,2.9,8.4,6.4
		c0,2.7-1.5,4.9-4.7,5.9v0.1c3.1,0.5,5.5,2.9,5.5,6.2c0,4.5-4,7.8-10.4,7.8c-3.3,0-6.1-0.9-7.6-1.8L297.8,529z"/>
	<polygon class="st2" points="221.4,507.4 221.3,507.4 216.4,509.7 215.5,505.3 222.2,502.1 227.2,502.1 227.2,527.6 221.4,527.6 	
		"/>
	<path class="st2" d="M237.4,523.3c0.8,0.1,1.4,0,2.6,0c1.8-0.1,3.7-0.6,5-1.6c1.7-1.1,2.8-2.8,3.2-4.8l-0.1,0
		c-1.1,1.2-2.8,1.8-5.1,1.8c-4.3,0-7.9-3-7.9-8c0-5,4-9.2,9.6-9.2c6.6,0,9.7,5,9.7,11c0,5.3-1.7,9.2-4.5,11.8
		c-2.4,2.2-5.8,3.4-9.8,3.5c-1,0.1-2,0-2.7,0V523.3z M241,510.5c0,2.2,1.2,4.1,3.6,4.1c1.6,0,2.8-0.7,3.3-1.6
		c0.2-0.4,0.3-0.8,0.3-1.5c0-2.7-1-5.4-3.8-5.4C242.5,506,241,507.8,241,510.5"/>
	<polygon class="st2" points="179.8,469.8 179.8,473.6 169.2,495.3 162.9,495.3 173.4,474.8 173.4,474.7 161.7,474.7 161.7,469.8 	
		"/>
	<polygon class="st2" points="103.3,427.3 103.2,427.3 98.3,429.6 97.4,425.1 104.1,422 109.1,422 109.1,447.5 103.3,447.5 	"/>
	<path class="st2" d="M133.7,426.2c-0.7,0-1.4,0-2.3,0.1c-5.3,0.4-7.7,3.1-8.3,6.1h0.1c1.3-1.3,3.1-2,5.4-2c4.3,0,7.9,3,7.9,8.3
		c0,5.1-3.9,9.2-9.4,9.2c-6.8,0-10.2-5.1-10.2-11.1c0-4.8,1.8-8.8,4.6-11.4c2.5-2.3,5.8-3.5,9.8-3.7c1.1-0.1,1.8-0.1,2.4,0V426.2z
		 M130.5,439c0-2.4-1.3-4.4-3.8-4.4c-1.6,0-2.9,1-3.5,2.2c-0.2,0.4-0.3,0.8-0.3,1.5c0.1,2.7,1.4,5.1,4.2,5.1
		C129.1,443.6,130.5,441.6,130.5,439"/>
	<path class="st2" d="M81,371.4c-2.5-1.3-3.7-3.4-3.7-5.6c0-4.3,3.9-7.2,9-7.2c6,0,8.4,3.5,8.4,6.6c0,2.2-1.2,4.4-3.7,5.6v0.1
		c2.5,0.9,4.7,3.1,4.7,6.3c0,4.6-3.9,7.8-9.8,7.8c-6.5,0-9.5-3.7-9.5-7.1C76.4,374.9,78.2,372.7,81,371.4L81,371.4z M89.6,377.7
		c0-2.2-1.7-3.6-4-4.2c-2,0.5-3.1,2-3.1,3.8c0,1.8,1.4,3.6,3.6,3.6C88.2,380.9,89.6,379.5,89.6,377.7 M82.9,365.6
		c0,1.7,1.5,2.8,3.6,3.5c1.4-0.4,2.6-1.6,2.6-3.2c0-1.6-0.9-3.2-3.1-3.2C84,362.7,82.9,364.1,82.9,365.6"/>
	<polygon class="st2" points="61.4,293.8 61.3,293.8 56.5,296.1 55.5,291.6 62.3,288.5 67.2,288.5 67.2,314 61.4,314 	"/>
	<polygon class="st2" points="83.2,293.8 83.1,293.8 78.3,296.1 77.3,291.6 84.1,288.5 89,288.5 89,314 83.2,314 	"/>
	<polygon class="st2" points="66.3,221.2 66.3,221.2 61.4,223.6 60.4,219.1 67.2,215.9 72.1,215.9 72.1,241.4 66.3,241.4 	"/>
	<path class="st2" d="M91.1,241.4v-6.1H79.8v-3.9l9.6-15.5h7.3v15h3v4.5h-3v6.1H91.1z M91.1,230.9v-5.7c0-1.5,0.1-3.1,0.2-4.7h-0.1
		c-0.8,1.6-1.5,3.1-2.4,4.7l-3.4,5.6l0,0.1H91.1z"/>
	<path class="st2" d="M105.2,173.6c0.8,0.1,1.4,0,2.6,0c1.8-0.1,3.7-0.6,5-1.6c1.7-1.1,2.8-2.8,3.2-4.7l-0.1,0
		c-1.1,1.2-2.8,1.8-5.1,1.8c-4.3,0-7.9-3-7.9-8c0-5,4-9.2,9.6-9.2c6.6,0,9.7,5,9.7,11c0,5.3-1.7,9.2-4.5,11.8
		c-2.4,2.2-5.8,3.4-9.8,3.5c-1,0.1-2,0-2.7,0V173.6z M108.8,160.8c0,2.2,1.2,4.1,3.6,4.1c1.6,0,2.8-0.7,3.3-1.6
		c0.2-0.4,0.3-0.8,0.3-1.5c0-2.7-1-5.4-3.8-5.4C110.3,156.3,108.8,158.1,108.8,160.8"/>
	<polygon class="st2" points="152.3,101.3 152.2,101.3 147.4,103.7 146.4,99.2 153.2,96 158.1,96 158.1,121.6 152.3,121.6 	"/>
	<path class="st2" d="M166.5,121.6v-3.6l3.3-2.9c5.6-5,8.3-7.9,8.4-10.9c0-2.1-1.2-3.7-4.2-3.7c-2.2,0-4.1,1.1-5.5,2.1l-1.7-4.2
		c1.9-1.5,4.9-2.6,8.3-2.6c5.8,0,9,3.4,9,8c0,4.3-3.1,7.7-6.8,11l-2.4,2v0.1h9.7v4.9H166.5z"/>
	<path class="st2" d="M237.1,69h-9.9l-0.5,3.9c0.5-0.1,1-0.1,1.6-0.1c2.4,0,4.9,0.5,6.7,1.8c1.9,1.3,3.1,3.4,3.1,6.4
		c0,4.7-4.1,8.9-11,8.9c-3.1,0-5.7-0.7-7.1-1.5l1.1-4.5c1.1,0.6,3.4,1.3,5.7,1.3c2.5,0,5.1-1.2,5.1-3.9c0-2.6-2.1-4.2-7.2-4.2
		c-1.4,0-2.4,0.1-3.4,0.2l1.6-13.4h14.1V69z"/>
	<path d="M300.7,580.8c-38.3,0-75.4-7.5-110.3-22.3c-33.7-14.3-64.1-34.7-90.1-60.7c-26-26-46.5-56.3-60.7-90.1
		c-14.8-34.9-22.3-72.1-22.3-110.3c0-38.3,7.5-75.4,22.3-110.3C53.9,153.3,74.3,123,100.3,97c26-26,56.3-46.5,90.1-60.7
		C225.4,21.5,262.5,14,300.7,14c38.3,0,75.4,7.5,110.3,22.3C444.8,50.5,475.1,71,501.2,97c26,26,46.5,56.3,60.7,90.1
		c14.8,34.9,22.3,72.1,22.3,110.3c0,38.3-7.5,75.4-22.3,110.3c-14.3,33.8-34.7,64.1-60.7,90.1c-26,26-56.3,46.5-90.1,60.7
		C376.1,573.3,339,580.8,300.7,580.8 M300.7,24.8c-150.3,0-272.6,122.3-272.6,272.6C28.1,447.7,150.4,570,300.7,570
		c150.3,0,272.6-122.3,272.6-272.6C573.3,147.1,451.1,24.8,300.7,24.8"/>
</g>
</svg>
